<?xml version="1.0" encoding="utf-8"?>
<!-- Generator: Adobe Illustrator 16.0.0, SVG Export Plug-In . SVG Version: 6.00 Build 0)  -->
<!DOCTYPE svg PUBLIC "-//W3C//DTD SVG 1.1//EN" "http://www.w3.org/Graphics/SVG/1.1/DTD/svg11.dtd">
<svg version="1.1" xmlns="http://www.w3.org/2000/svg" xmlns:xlink="http://www.w3.org/1999/xlink" x="0px" y="0px" width="1920px"
	 height="1080px" viewBox="0 0 1920 1080" enable-background="new 0 0 1920 1080" xml:space="preserve">
<g id="Livello_2">
	<rect fill="#C3D7D6" width="1920" height="748"/>
	<path fill="#658038" d="M0,956h1920V151c0,0-179.742-104.217-353.759-104.217c-225.022,0-326.032,106.487-443.876,114.234
		c-75.483,4.962-219.635-85.014-372.203-87.988C550.629,69.138,474.13,135.205,345.118,151S0,96.915,0,96.915V956z"/>
	<path fill="#86AA4B" d="M1920,1080H0V230.731c0,0,179.742-109.948,353.759-109.948c225.022,0,326.032,112.343,443.876,120.516
		c75.483,5.235,219.635-89.688,372.203-92.827c199.533-4.105,276.032,65.596,405.044,82.259
		c129.012,16.664,345.118-57.06,345.118-57.06V1080z"/>
</g>
<g id="Livello_1">
	<rect x="639" y="283" fill="#8FBB4A" width="555" height="738"/>
	<rect x="660" y="311" fill="#B7975C" width="513" height="682"/>
	<circle fill="#6AC473" cx="352.592" cy="736.592" r="46.519"/>
	<circle fill="#6AC473" cx="419.63" cy="767.628" r="46.519"/>
	<path fill="#6AC473" d="M466,809.997c0,5.917-8.626,11.003-18.396,11.003H323.764c-9.771,0-17.764-5.086-17.764-11.003v-43.928
		c0-5.917,7.993-11.069,17.764-11.069h123.839c9.771,0,18.396,5.152,18.396,11.069V809.997z"/>
	<rect x="306" y="732" fill="#859DA6" width="16" height="51"/>
	<circle fill="#57A15E" cx="293.494" cy="756.009" r="35.476"/>
	<circle fill="#57A15E" cx="242.37" cy="779.677" r="35.476"/>
	<path fill="#57A15E" d="M207,811.988c0,4.513,6.586,8.012,14.037,8.012h94.441c7.451,0,13.522-3.499,13.522-8.012v-33.499
		c0-4.513-6.071-8.489-13.522-8.489h-94.441c-7.451,0-14.037,3.977-14.037,8.489V811.988z"/>
	<rect x="316" y="753" fill="#57A15E" width="13" height="38"/>
	<g>
		<circle fill="#6AC473" cx="1609.451" cy="834.592" r="46.52"/>
		<circle fill="#6AC473" cx="1542.413" cy="865.628" r="46.519"/>
		<path fill="#6AC473" d="M1496,907.997c0,5.917,8.669,11.003,18.439,11.003h123.84c9.771,0,17.721-5.086,17.721-11.003v-43.928
			c0-5.917-7.95-11.069-17.721-11.069h-123.84c-9.771,0-18.439,5.152-18.439,11.069V907.997z"/>
		<rect x="1640" y="830" fill="#859DA6" width="16" height="51"/>
		<circle fill="#57A15E" cx="1668.549" cy="854.009" r="35.476"/>
		<circle fill="#57A15E" cx="1719.673" cy="877.677" r="35.476"/>
		<path fill="#57A15E" d="M1755,909.988c0,4.513-6.543,8.012-13.994,8.012h-94.441c-7.451,0-13.564-3.499-13.564-8.012v-33.499
			c0-4.513,6.113-8.489,13.564-8.489h94.441c7.451,0,13.994,3.977,13.994,8.489V909.988z"/>
		<rect x="1633" y="851" fill="#57A15E" width="13" height="38"/>
	</g>
	<path fill="#E0E0E0" d="M378.317,829.424h67.868c0.447,0,0.893,0.058,1.325,0.173l40.082,10.651
		c1.652,0.439,3.414,0.032,4.706-1.088l15.253-13.218c1.664-1.442,2.23-3.782,1.409-5.825l-12.868-32.027
		c-0.331-0.824-0.868-1.55-1.562-2.104l-31.263-25.042c-0.916-0.733-2.055-1.133-3.228-1.133h-18l-21.092-10.546
		c-2.089-1.044-4.618-0.557-6.168,1.189l-40.353,45.448L378.317,829.424z"/>
	<path fill="#CCCCCC" d="M479.061,795.203l16.518,41.115l11.973-10.376c1.664-1.442,2.23-3.782,1.409-5.825l-12.868-32.027
		c-0.33-0.824-0.869-1.55-1.562-2.104l-31.263-25.042c-0.916-0.733-2.055-1.133-3.228-1.133h-18l-19.071-9.535L479.061,795.203z"/>
	<path fill="#E0E0E0" d="M393.415,836.589l-14.563,8.898H328.87c-3.239,0-5.679-2.95-5.069-6.133l3.299-17.234
		c0.224-1.165,0.841-2.217,1.748-2.979l32.593-27.396c1.751-1.472,4.262-1.616,6.17-0.353l23.022,15.236l5.142,24.496
		C396.225,833.262,395.279,835.449,393.415,836.589L393.415,836.589z"/>
	<path fill="#CCCCCC" d="M380.02,844.774l13.396-8.186c1.864-1.14,2.809-3.327,2.36-5.466l-5.142-24.496l-21.625-14.312
		L380.02,844.774z"/>
	<path fill="#E0E0E0" d="M1536.195,927.933l-45.214,12.057c-1.132,0.302-2.333,0.21-3.405-0.261l-31.574-13.862
		c-2.053-0.9-3.289-3.023-3.06-5.254l4.291-41.737c0.155-1.508,0.966-2.872,2.216-3.729l27.481-18.845
		c1.183-0.812,2.649-1.095,4.05-0.779l41.637,9.347l22.006,32.874L1536.195,927.933z"/>
	<path fill="#E0E0E0" d="M1536.195,927.933l-45.214,12.057c-1.132,0.302-2.333,0.21-3.405-0.261l-31.574-13.862
		c-2.053-0.9-3.289-3.023-3.06-5.254l4.291-41.737c0.155-1.508,0.966-2.872,2.216-3.729l27.481-18.845
		c1.183-0.812,2.649-1.095,4.05-0.779l41.637,9.347l22.006,32.874L1536.195,927.933z"/>
	<path fill="#CCCCCC" d="M1532.617,864.869l-21.914-4.92l22.842,34.123l-18.525,39.507l21.176-5.646l18.428-30.19L1532.617,864.869z
		"/>
	<path fill="#E0E0E0" d="M1552.297,934.194h51.435l12.511-8.56c2.438-1.67,2.981-5.041,1.188-7.391l-15.899-20.846
		c-0.609-0.797-1.435-1.399-2.379-1.734l-23.936-8.493c-1.483-0.525-3.127-0.347-4.461,0.487l-26.512,16.57l-8.051,23.705
		L1552.297,934.194z"/>
	<path fill="#CCCCCC" d="M1589.049,907.582l18.373,24.088l8.82-6.034c2.439-1.67,2.982-5.041,1.189-7.391l-15.9-20.846
		c-0.607-0.797-1.434-1.399-2.378-1.734l-23.935-8.493c-1.484-0.525-3.127-0.347-4.463,0.487l-13.709,8.569L1589.049,907.582z"/>
	<g>
		<circle fill="#6AC473" cx="1483.732" cy="402.646" r="35.574"/>
		<circle fill="#6AC473" cx="1432.467" cy="426.38" r="35.574"/>
		<path fill="#6AC473" d="M1397,458.78c0,4.524,6.604,8.22,14.076,8.22h94.701c7.472,0,13.223-3.695,13.223-8.22v-33.592
			c0-4.525-5.751-8.188-13.223-8.188h-94.701c-7.472,0-14.076,3.663-14.076,8.188V458.78z"/>
		<rect x="1507" y="399" fill="#859DA6" width="12" height="39"/>
		<circle fill="#57A15E" cx="1528.926" cy="417.494" r="27.129"/>
		<circle fill="#57A15E" cx="1568.021" cy="435.594" r="27.129"/>
		<path fill="#57A15E" d="M1595,460.303c0,3.451-4.969,5.697-10.666,5.697h-72.221c-5.698,0-10.113-2.246-10.113-5.697v-25.617
			c0-3.451,4.415-6.686,10.113-6.686h72.221c5.697,0,10.666,3.234,10.666,6.686V460.303z"/>
		<rect x="1502" y="415" fill="#57A15E" width="10" height="29"/>
	</g>
	<g>
		<circle fill="#6AC473" cx="212.83" cy="399.373" r="39.301"/>
		<circle fill="#6AC473" cx="156.194" cy="425.593" r="39.3"/>
		<path fill="#6AC473" d="M117,461.387c0,4.999,7.307,8.613,15.562,8.613h104.622c8.254,0,14.816-3.614,14.816-8.613v-37.111
			c0-5-6.562-9.276-14.816-9.276H132.562c-8.255,0-15.562,4.277-15.562,9.276V461.387z"/>
		<rect x="238" y="395" fill="#859DA6" width="14" height="43"/>
		<circle fill="#57A15E" cx="262.757" cy="415.776" r="29.971"/>
		<circle fill="#57A15E" cx="305.948" cy="435.772" r="29.971"/>
		<path fill="#57A15E" d="M336,463.069c0,3.812-5.736,6.931-12.03,6.931h-79.787c-6.295,0-11.183-3.118-11.183-6.931v-28.301
			c0-3.813,4.888-7.769,11.183-7.769h79.787c6.294,0,12.03,3.956,12.03,7.769V463.069z"/>
		<rect x="233" y="413" fill="#57A15E" width="11" height="32"/>
	</g>
	<path fill="#E0E0E0" d="M205.626,461.771l24.312-36.318l45.999-10.326c1.547-0.349,3.167-0.036,4.474,0.861l30.36,20.819
		c1.38,0.946,2.276,2.453,2.448,4.119l24.626,46.11c0.253,2.464-1.112,4.81-3.38,5.804l-54.768,15.314
		c-1.184,0.52-2.511,0.622-3.762,0.288l-49.95-13.32L205.626,461.771z"/>
	<path fill="#E0E0E0" d="M205.626,461.771l24.312-36.318l45.999-10.326c1.547-0.349,3.167-0.036,4.474,0.861l30.36,20.819
		c1.38,0.946,2.276,2.453,2.448,4.119l24.626,46.11c0.253,2.464-1.112,4.81-3.38,5.804l-54.768,15.314
		c-1.184,0.52-2.511,0.622-3.762,0.288l-49.95-13.32L205.626,461.771z"/>
	<path fill="#CCCCCC" d="M205.626,461.769l20.358,33.353l23.395,6.238l-20.466-43.646l25.234-37.698l-24.209,5.436L205.626,461.769z
		"/>
	<path fill="#E0E0E0" d="M158.354,492.096c-2.059-1.258-3.104-3.675-2.606-6.036l5.68-19.329l25.434-16.833
		c2.108-1.396,4.882-1.236,6.816,0.39l36.007,30.266c1.002,0.843,1.684,2.005,1.931,3.292l3.645,19.04
		c0.673,3.516-2.022,6.775-5.601,6.775h-68.474L158.354,492.096L158.354,492.096z"/>
	<path fill="#CCCCCC" d="M185.316,450.918l-23.891,15.812l-5.68,19.329c-0.495,2.362,0.548,4.779,2.608,6.038l1.542,16.776
		L185.316,450.918z"/>
</g>
<g id="Livello_3">
</g>
</svg>
