<?xml version="1.0" encoding="utf-8"?>
<!-- Generator: Adobe Illustrator 16.0.0, SVG Export Plug-In . SVG Version: 6.00 Build 0)  -->
<!DOCTYPE svg PUBLIC "-//W3C//DTD SVG 1.1//EN" "http://www.w3.org/Graphics/SVG/1.1/DTD/svg11.dtd">
<svg version="1.1" id="Livello_1" xmlns="http://www.w3.org/2000/svg" xmlns:xlink="http://www.w3.org/1999/xlink" x="0px" y="0px"
	 width="174.281px" height="142.553px" viewBox="0 0 174.281 142.553" enable-background="new 0 0 174.281 142.553"
	 xml:space="preserve">
<path fill="#96CF89" d="M11.16,72.961C5.843,74.302,1.775,77.884,0,82.197c3.607,2.955,8.888,4.181,14.204,2.84
	c5.317-1.34,9.385-4.924,11.16-9.234C21.756,72.847,16.476,71.621,11.16,72.961z"/>
<path fill="#96CF89" d="M45.734,46.707c4.161,3.571,6.203,8.592,5.868,13.243c-4.547,1.035-9.819-0.223-13.979-3.794
	c-4.16-3.571-6.203-8.592-5.868-13.244C36.302,41.878,41.575,43.136,45.734,46.707z"/>
<path fill="none" stroke="#54AD41" stroke-width="5.6391" stroke-miterlimit="10" d="M28.57,104.553V24.934l-0.007,0
	c0-12.214,9.901-22.115,22.116-22.115c12.214,0,22.115,9.901,22.115,22.115"/>
<path fill="#F7931E" d="M69.686,44.486c-8.223-9.799-5.749-17.148-0.092-21.896c5.657-4.746,13.324-5.905,21.548,3.894
	c8.221,9.799,7.087,30.233,7.087,30.233S77.907,54.285,69.686,44.486z"/>
<path fill="#F9A94B" d="M62.694,40.444c-3.429-12.324,1.865-17.99,8.979-19.97c7.115-1.979,14.574,0.14,18.004,12.464
	c3.428,12.322-6.063,30.454-6.063,30.454S66.121,52.767,62.694,40.444z"/>
<path fill="#F7931E" d="M58.623,35.699c2.372-12.57,9.625-15.312,16.881-13.945c7.257,1.37,13.012,6.567,10.642,19.138
	c-2.372,12.569-18.9,24.638-18.9,24.638S56.251,48.269,58.623,35.699z"/>
<path fill="#96CF89" d="M87.159,72.961c-5.316,1.341-9.384,4.923-11.159,9.235c3.607,2.955,8.888,4.181,14.204,2.84
	c5.316-1.34,9.385-4.924,11.159-9.234C97.757,72.847,92.476,71.621,87.159,72.961z"/>
<path fill="#96CF89" d="M121.734,46.707c4.161,3.571,6.202,8.592,5.868,13.243c-4.547,1.035-9.819-0.223-13.98-3.794
	c-4.159-3.571-6.202-8.592-5.867-13.244C112.302,41.878,117.575,43.136,121.734,46.707z"/>
<path fill="none" stroke="#54AD41" stroke-width="5.6391" stroke-miterlimit="10" d="M104.569,104.553V24.934l-0.007,0
	c0-12.214,9.901-22.115,22.116-22.115c12.213,0,22.115,9.901,22.115,22.115"/>
<path fill="#F7931E" d="M145.687,44.486c-8.223-9.799-5.75-17.148-0.093-21.896c5.657-4.746,13.324-5.905,21.548,3.894
	c8.221,9.799,7.087,30.233,7.087,30.233S153.907,54.285,145.687,44.486z"/>
<path fill="#F9A94B" d="M138.694,40.444c-3.43-12.324,1.865-17.99,8.979-19.97c7.115-1.979,14.574,0.14,18.004,12.464
	c3.428,12.322-6.063,30.454-6.063,30.454S142.121,52.767,138.694,40.444z"/>
<path fill="#F7931E" d="M134.622,35.699c2.373-12.57,9.625-15.312,16.882-13.945c7.257,1.37,13.012,6.567,10.642,19.138
	c-2.372,12.569-18.9,24.638-18.9,24.638S132.251,48.269,134.622,35.699z"/>
<path fill="#96CF89" d="M11.16,110.961c-5.317,1.341-9.384,4.923-11.16,9.235c3.607,2.955,8.888,4.181,14.204,2.84
	c5.317-1.34,9.385-4.924,11.16-9.234C21.756,110.847,16.476,109.621,11.16,110.961z"/>
<path fill="#96CF89" d="M45.734,84.707c4.161,3.572,6.203,8.593,5.868,13.244c-4.547,1.035-9.819-0.223-13.979-3.795
	c-4.16-3.57-6.203-8.592-5.868-13.243C36.302,79.878,41.575,81.136,45.734,84.707z"/>
<path fill="none" stroke="#54AD41" stroke-width="5.6391" stroke-miterlimit="10" d="M28.57,142.553V62.934l-0.007,0
	c0-12.214,9.901-22.115,22.116-22.115c12.214,0,22.115,9.901,22.115,22.115"/>
<path fill="#F7931E" d="M69.686,82.486c-8.223-9.799-5.749-17.148-0.092-21.896c5.657-4.746,13.324-5.905,21.548,3.894
	c8.221,9.799,7.087,30.232,7.087,30.232S77.907,92.285,69.686,82.486z"/>
<path fill="#F9A94B" d="M62.694,78.444c-3.429-12.324,1.865-17.99,8.979-19.97c7.115-1.979,14.574,0.14,18.004,12.464
	c3.428,12.322-6.063,30.455-6.063,30.455S66.121,90.767,62.694,78.444z"/>
<path fill="#F7931E" d="M58.623,73.699c2.372-12.57,9.625-15.312,16.881-13.945c7.257,1.37,13.012,6.567,10.642,19.138
	c-2.372,12.568-18.9,24.638-18.9,24.638S56.251,86.269,58.623,73.699z"/>
<path fill="#96CF89" d="M87.159,110.961c-5.316,1.341-9.384,4.923-11.159,9.235c3.607,2.955,8.888,4.181,14.204,2.84
	c5.316-1.34,9.385-4.924,11.159-9.234C97.757,110.847,92.476,109.621,87.159,110.961z"/>
<path fill="#96CF89" d="M121.734,84.707c4.161,3.572,6.202,8.593,5.868,13.244c-4.547,1.035-9.819-0.223-13.98-3.795
	c-4.159-3.57-6.202-8.592-5.867-13.243C112.302,79.878,117.575,81.136,121.734,84.707z"/>
<path fill="none" stroke="#54AD41" stroke-width="5.6391" stroke-miterlimit="10" d="M104.569,142.553V62.934l-0.007,0
	c0-12.214,9.901-22.115,22.116-22.115c12.213,0,22.115,9.901,22.115,22.115"/>
<path fill="#F7931E" d="M145.687,82.486c-8.223-9.799-5.75-17.148-0.093-21.896c5.657-4.746,13.324-5.905,21.548,3.894
	c8.221,9.799,7.087,30.232,7.087,30.232S153.907,92.285,145.687,82.486z"/>
<path fill="#F9A94B" d="M138.694,78.444c-3.43-12.324,1.865-17.99,8.979-19.97c7.115-1.979,14.574,0.14,18.004,12.464
	c3.428,12.322-6.063,30.455-6.063,30.455S142.121,90.767,138.694,78.444z"/>
<path fill="#F7931E" d="M134.622,73.699c2.373-12.57,9.625-15.312,16.882-13.945c7.257,1.37,13.012,6.567,10.642,19.138
	c-2.372,12.568-18.9,24.638-18.9,24.638S132.251,86.269,134.622,73.699z"/>
</svg>
