<?xml version="1.0" encoding="utf-8"?>
<!-- Generator: Adobe Illustrator 16.0.0, SVG Export Plug-In . SVG Version: 6.00 Build 0)  -->
<!DOCTYPE svg PUBLIC "-//W3C//DTD SVG 1.1//EN" "http://www.w3.org/Graphics/SVG/1.1/DTD/svg11.dtd">
<svg version="1.1" id="Livello_1" xmlns="http://www.w3.org/2000/svg" xmlns:xlink="http://www.w3.org/1999/xlink" x="0px" y="0px"
	 width="147.979px" height="175.288px" viewBox="0 0 147.979 175.288" enable-background="new 0 0 147.979 175.288"
	 xml:space="preserve">
<g>
	<g>
		<path fill="#F7931E" d="M50.077,26.734c-3.489,9.587-9.552,10.81-15.086,8.795c-5.535-2.015-9.393-6.849-5.904-16.436
			c3.49-9.586,18.056-16.951,18.056-16.951S53.566,17.148,50.077,26.734z"/>
		<rect x="30.801" y="58.571" fill="#54AD41" width="5.908" height="75.469"/>
		<path fill="#F7931E" d="M40.894,19.094c3.49,9.587-0.369,14.421-5.903,16.436c-5.535,2.015-11.598,0.792-15.087-8.795
			c-3.489-9.586,2.935-24.591,2.935-24.591S37.404,9.508,40.894,19.094z"/>
		<path fill="#F9A94B" d="M46.159,22.105c0,10.202-5.279,13.425-11.168,13.425c-5.89,0-11.169-3.223-11.169-13.425
			C23.821,11.903,34.99,0,34.99,0S46.159,11.903,46.159,22.105z"/>
		<path fill="#F7931E" d="M28.948,19.145c8.835,5.101,8.986,11.284,6.042,16.385c-2.946,5.101-8.376,8.061-17.211,2.96
			C8.944,33.389,4.22,17.765,4.22,17.765S20.113,14.044,28.948,19.145z"/>
		<path fill="#F9A94B" d="M34.917,18.067c6.558,7.815,4.585,13.677,0.074,17.463c-4.513,3.786-10.627,4.71-17.186-3.105
			c-6.557-7.815-5.653-24.113-5.653-24.113S28.359,10.251,34.917,18.067z"/>
		<path fill="#F7931E" d="M19.83,26.862C29.876,25.09,33.967,29.73,34.99,35.53c1.022,5.801-1.235,11.559-11.282,13.33
			C13.662,50.631,0,41.7,0,41.7S9.783,28.633,19.83,26.862z"/>
		<path fill="#F9A94B" d="M23.708,22.2c10.047,1.771,12.304,7.53,11.282,13.33c-1.023,5.801-5.114,10.439-15.161,8.668
			S0,29.36,0,29.36S13.662,20.428,23.708,22.2z"/>
		<path fill="#F7931E" d="M17.805,38.635c6.558-7.815,12.673-6.89,17.186-3.105c4.511,3.787,6.483,9.647-0.074,17.463
			c-6.557,7.815-22.764,9.754-22.764,9.754S11.247,46.45,17.805,38.635z"/>
		<path fill="#F9A94B" d="M17.779,32.57c8.835-5.101,14.265-2.14,17.211,2.96c2.944,5.102,2.793,11.284-6.042,16.385
			c-8.834,5.101-24.728,1.38-24.728,1.38S8.944,37.67,17.779,32.57z"/>
		<path fill="#F7931E" d="M23.821,48.955c0-10.202,5.279-13.424,11.169-13.425c5.89,0.001,11.167,3.223,11.168,13.425
			c0,10.201-11.169,22.104-11.169,22.104S23.821,59.156,23.821,48.955z"/>
		<path fill="#F9A94B" d="M19.903,44.325c3.49-9.586,9.552-10.809,15.087-8.795c5.534,2.015,9.392,6.849,5.903,16.436
			c-3.489,9.586-18.056,16.951-18.056,16.951S16.414,53.912,19.903,44.325z"/>
		<path fill="#F7931E" d="M35.064,52.993c-6.558-7.815-4.585-13.677-0.074-17.463c4.512-3.786,10.627-4.71,17.185,3.105
			c6.557,7.814,5.652,24.112,5.652,24.112S41.621,60.808,35.064,52.993z"/>
		<path fill="#F9A94B" d="M29.086,51.965c-3.489-9.586,0.369-14.42,5.904-16.435c5.535-2.014,11.597-0.791,15.086,8.796
			c3.489,9.586-2.935,24.591-2.935,24.591S32.575,61.551,29.086,51.965z"/>
		<path fill="#F7931E" d="M46.271,48.86c-10.047-1.771-12.304-7.53-11.281-13.33c1.023-5.8,5.113-10.438,15.16-8.668
			C60.197,28.634,69.979,41.7,69.979,41.7S56.318,50.632,46.271,48.86z"/>
		<path fill="#F9A94B" d="M41.032,51.915c-8.835-5.101-8.986-11.284-6.042-16.385c2.945-5.101,8.375-8.061,17.211-2.96
			c8.834,5.101,13.558,20.725,13.558,20.725S49.867,57.016,41.032,51.915z"/>
		<path fill="#F7931E" d="M52.201,38.49c-8.835,5.101-14.265,2.141-17.21-2.96c-2.945-5.102-2.793-11.284,6.042-16.385
			c8.834-5.101,24.728-1.38,24.728-1.38S61.036,33.389,52.201,38.49z"/>
		<path fill="#F9A94B" d="M50.15,44.198c-10.047,1.771-14.136-2.868-15.16-8.668c-1.022-5.8,1.234-11.558,11.281-13.33
			C56.318,20.428,69.98,29.36,69.98,29.36S60.197,42.427,50.15,44.198z"/>
		<path fill="#F9A94B" d="M52.175,32.425c-6.558,7.815-12.673,6.891-17.185,3.105c-4.512-3.787-6.484-9.647,0.073-17.463
			c6.558-7.815,22.765-9.754,22.765-9.754S58.732,24.61,52.175,32.425z"/>
		<path fill="#72512F" d="M41.623,25.432c0,4.846-3.039,10.012-6.364,10.012c-3.325,0-6.247-5.167-6.247-10.012
			c0-4.845,6.305-10.499,6.305-10.499S41.623,20.586,41.623,25.432z"/>
		<path fill="#72512F" d="M37.814,23.859c1.657,4.553,0.569,10.448-2.555,11.584c-3.125,1.138-7.637-2.718-9.294-7.271
			c-1.657-4.554,2.334-12.022,2.334-12.022S36.157,19.306,37.814,23.859z"/>
		<path fill="#72512F" d="M33.698,23.684c3.114,3.712,4.108,9.623,1.561,11.76c-2.547,2.138-8.106,0.058-11.221-3.654
			c-3.114-3.712-1.918-12.096-1.918-12.096S30.583,19.972,33.698,23.684z"/>
		<path fill="#72512F" d="M29.77,24.927c4.197,2.423,7.152,7.638,5.489,10.517c-1.662,2.88-7.598,2.827-11.794,0.404
			c-4.197-2.422-5.94-10.71-5.94-10.71S25.574,22.504,29.77,24.927z"/>
		<path fill="#72512F" d="M26.504,27.439c4.772,0.841,9.333,4.731,8.755,8.005c-0.577,3.275-6.172,5.255-10.945,4.413
			c-4.772-0.841-9.245-8.032-9.245-8.032S21.732,26.597,26.504,27.439z"/>
		<path fill="#72512F" d="M24.294,30.916c4.772-0.841,10.388,1.254,10.965,4.528c0.578,3.275-4.003,7.049-8.775,7.891
			c-4.772,0.842-11.435-4.386-11.435-4.386S19.522,31.757,24.294,30.916z"/>
		<path fill="#72512F" d="M23.406,34.939c4.197-2.423,10.19-2.375,11.853,0.504c1.663,2.88-1.351,7.993-5.547,10.416
			s-12.245-0.21-12.245-0.21S19.21,37.362,23.406,34.939z"/>
		<path fill="#72512F" d="M23.949,39.024c3.115-3.713,8.764-5.717,11.311-3.58c2.547,2.138,1.464,7.973-1.65,11.686
			c-3.114,3.712-11.579,3.99-11.579,3.99S20.834,42.736,23.949,39.024z"/>
		<path fill="#72512F" d="M25.855,42.676c1.658-4.554,6.28-8.369,9.404-7.232c3.125,1.138,4.103,6.991,2.446,11.545
			s-9.516,7.71-9.516,7.71S24.198,47.229,25.855,42.676z"/>
		<path fill="#72512F" d="M28.896,45.457c0-4.846,3.039-10.013,6.363-10.013c3.325,0,6.247,5.167,6.247,10.012
			c0,4.845-6.305,10.5-6.305,10.5S28.896,50.302,28.896,45.457z"/>
		<path fill="#72512F" d="M32.704,47.029c-1.657-4.554-0.569-10.448,2.556-11.585c3.125-1.137,7.636,2.719,9.294,7.272
			c1.658,4.553-2.334,12.022-2.334,12.022S34.361,51.583,32.704,47.029z"/>
		<path fill="#72512F" d="M36.82,47.205c-3.115-3.712-4.108-9.623-1.561-11.761c2.547-2.137,8.106-0.058,11.221,3.655
			c3.115,3.711,1.919,12.096,1.919,12.096S39.935,50.916,36.82,47.205z"/>
		<path fill="#72512F" d="M40.749,45.961c-4.197-2.423-7.152-7.638-5.49-10.518c1.663-2.879,7.597-2.826,11.794-0.403
			c4.197,2.422,5.94,10.71,5.94,10.71S44.945,48.384,40.749,45.961z"/>
		<path fill="#72512F" d="M44.015,43.45c-4.773-0.842-9.333-4.731-8.756-8.006c0.578-3.274,6.173-5.254,10.944-4.413
			c4.772,0.841,9.246,8.033,9.246,8.033S48.786,44.291,44.015,43.45z"/>
		<path fill="#72512F" d="M46.225,39.972c-4.772,0.842-10.388-1.253-10.965-4.528c-0.577-3.274,4.003-7.048,8.775-7.89
			c4.771-0.842,11.435,4.386,11.435,4.386S50.996,39.13,46.225,39.972z"/>
		<path fill="#72512F" d="M47.112,35.949c-4.197,2.423-10.19,2.375-11.853-0.505c-1.662-2.879,1.351-7.992,5.547-10.415
			c4.196-2.423,12.246,0.21,12.246,0.21S51.308,33.526,47.112,35.949z"/>
		<path fill="#72512F" d="M46.57,31.865c-3.115,3.712-8.764,5.717-11.311,3.579c-2.546-2.137-1.464-7.973,1.651-11.685
			c3.113-3.712,11.579-3.991,11.579-3.991S49.684,28.153,46.57,31.865z"/>
		<path fill="#72512F" d="M44.664,28.212c-1.657,4.554-6.28,8.37-9.404,7.232c-3.124-1.137-4.103-6.991-2.445-11.544
			c1.656-4.553,9.516-7.71,9.516-7.71S46.32,23.659,44.664,28.212z"/>
		<circle fill="#492300" cx="35.259" cy="35.444" r="14.314"/>
		<path fill="#96CF89" d="M42.626,79.208c-3.943,3.385-5.879,8.145-5.562,12.552c4.31,0.982,9.307-0.211,13.25-3.596
			c3.943-3.385,5.879-8.144,5.562-12.553C51.567,74.631,46.569,75.823,42.626,79.208z"/>
		<path fill="#96CF89" d="M17.534,104.095c-5.04,1.271-8.896,4.666-10.578,8.754c3.419,2.801,8.424,3.963,13.463,2.691
			c5.039-1.27,8.896-4.666,10.578-8.754C27.578,103.985,22.573,102.823,17.534,104.095z"/>
	</g>
	<g>
		<path fill="#F7931E" d="M128.077,26.734c-3.49,9.587-9.553,10.81-15.087,8.795c-5.535-2.015-9.393-6.849-5.904-16.436
			c3.489-9.586,18.056-16.951,18.056-16.951S131.566,17.148,128.077,26.734z"/>
		<rect x="108.801" y="58.571" fill="#54AD41" width="5.907" height="75.469"/>
		<path fill="#F7931E" d="M118.894,19.094c3.49,9.587-0.369,14.421-5.903,16.436c-5.535,2.015-11.598,0.792-15.087-8.795
			c-3.489-9.586,2.935-24.591,2.935-24.591S115.404,9.508,118.894,19.094z"/>
		<path fill="#F9A94B" d="M124.159,22.105c0,10.202-5.279,13.425-11.169,13.425s-11.169-3.223-11.169-13.425
			C101.821,11.903,112.99,0,112.99,0S124.159,11.903,124.159,22.105z"/>
		<path fill="#F7931E" d="M106.948,19.145c8.835,5.101,8.986,11.284,6.042,16.385c-2.946,5.101-8.376,8.061-17.211,2.96
			c-8.835-5.101-13.56-20.725-13.56-20.725S98.113,14.044,106.948,19.145z"/>
		<path fill="#F9A94B" d="M112.917,18.067c6.558,7.815,4.584,13.677,0.073,17.463c-4.513,3.786-10.628,4.71-17.186-3.105
			c-6.558-7.815-5.653-24.113-5.653-24.113S106.358,10.251,112.917,18.067z"/>
		<path fill="#F7931E" d="M97.829,26.862c10.047-1.771,14.138,2.868,15.161,8.668c1.022,5.801-1.235,11.559-11.282,13.33
			S78,41.7,78,41.7S87.782,28.633,97.829,26.862z"/>
		<path fill="#F9A94B" d="M101.708,22.2c10.047,1.771,12.305,7.53,11.282,13.33c-1.023,5.801-5.114,10.439-15.161,8.668
			S78,29.36,78,29.36S91.661,20.428,101.708,22.2z"/>
		<path fill="#F7931E" d="M95.805,38.635c6.558-7.815,12.673-6.89,17.186-3.105c4.511,3.787,6.483,9.647-0.074,17.463
			c-6.558,7.815-22.765,9.754-22.765,9.754S89.247,46.45,95.805,38.635z"/>
		<path fill="#F9A94B" d="M95.779,32.57c8.835-5.101,14.265-2.14,17.211,2.96c2.944,5.102,2.793,11.284-6.042,16.385
			c-8.835,5.101-24.729,1.38-24.729,1.38S86.944,37.67,95.779,32.57z"/>
		<path fill="#F7931E" d="M101.821,48.955c0-10.202,5.279-13.424,11.169-13.425c5.89,0.001,11.167,3.223,11.169,13.425
			c0,10.201-11.17,22.104-11.17,22.104S101.821,59.156,101.821,48.955z"/>
		<path fill="#F9A94B" d="M97.903,44.325c3.489-9.586,9.552-10.809,15.087-8.795c5.534,2.015,9.392,6.849,5.903,16.436
			c-3.489,9.586-18.056,16.951-18.056,16.951S94.414,53.912,97.903,44.325z"/>
		<path fill="#F7931E" d="M113.063,52.993c-6.558-7.815-4.585-13.677-0.073-17.463c4.513-3.786,10.627-4.71,17.185,3.105
			c6.558,7.814,5.652,24.112,5.652,24.112S119.62,60.808,113.063,52.993z"/>
		<path fill="#F9A94B" d="M107.087,51.965c-3.49-9.586,0.369-14.42,5.903-16.435c5.534-2.014,11.597-0.791,15.087,8.796
			c3.488,9.586-2.936,24.591-2.936,24.591S110.575,61.551,107.087,51.965z"/>
		<path fill="#F7931E" d="M124.271,48.86c-10.047-1.771-12.304-7.53-11.281-13.33c1.023-5.8,5.113-10.438,15.16-8.668
			c10.046,1.772,19.829,14.838,19.829,14.838S134.317,50.632,124.271,48.86z"/>
		<path fill="#F9A94B" d="M119.032,51.915c-8.836-5.101-8.986-11.284-6.042-16.385c2.945-5.101,8.375-8.061,17.211-2.96
			c8.835,5.101,13.558,20.725,13.558,20.725S127.866,57.016,119.032,51.915z"/>
		<path fill="#F7931E" d="M130.2,38.49c-8.835,5.101-14.265,2.141-17.21-2.96c-2.944-5.102-2.793-11.284,6.042-16.385
			c8.834-5.101,24.728-1.38,24.728-1.38S139.036,33.389,130.2,38.49z"/>
		<path fill="#F9A94B" d="M128.149,44.198c-10.047,1.771-14.136-2.868-15.159-8.668c-1.022-5.8,1.234-11.558,11.281-13.33
			c10.047-1.771,23.708,7.161,23.708,7.161S138.196,42.427,128.149,44.198z"/>
		<path fill="#F9A94B" d="M130.175,32.425c-6.558,7.815-12.673,6.891-17.185,3.105c-4.513-3.787-6.483-9.647,0.073-17.463
			c6.558-7.815,22.765-9.754,22.765-9.754S136.732,24.61,130.175,32.425z"/>
		<path fill="#72512F" d="M119.623,25.432c0,4.846-3.039,10.012-6.364,10.012c-3.324,0-6.246-5.167-6.246-10.012
			c0-4.845,6.305-10.499,6.305-10.499S119.623,20.586,119.623,25.432z"/>
		<path fill="#72512F" d="M115.814,23.859c1.657,4.553,0.569,10.448-2.556,11.584c-3.124,1.138-7.637-2.718-9.294-7.271
			c-1.657-4.554,2.334-12.022,2.334-12.022S114.157,19.306,115.814,23.859z"/>
		<path fill="#72512F" d="M111.698,23.684c3.114,3.712,4.107,9.623,1.561,11.76c-2.547,2.138-8.105,0.058-11.221-3.654
			c-3.114-3.712-1.918-12.096-1.918-12.096S108.583,19.972,111.698,23.684z"/>
		<path fill="#72512F" d="M107.771,24.927c4.196,2.423,7.151,7.638,5.488,10.517c-1.662,2.88-7.598,2.827-11.793,0.404
			c-4.197-2.422-5.941-10.71-5.941-10.71S103.573,22.504,107.771,24.927z"/>
		<path fill="#72512F" d="M104.504,27.439c4.772,0.841,9.333,4.731,8.755,8.005c-0.576,3.275-6.172,5.255-10.944,4.413
			c-4.772-0.841-9.245-8.032-9.245-8.032S99.732,26.597,104.504,27.439z"/>
		<path fill="#72512F" d="M102.294,30.916c4.772-0.841,10.388,1.254,10.965,4.528c0.578,3.275-4.002,7.049-8.775,7.891
			c-4.771,0.842-11.434-4.386-11.434-4.386S97.522,31.757,102.294,30.916z"/>
		<path fill="#72512F" d="M101.406,34.939c4.197-2.423,10.19-2.375,11.853,0.504c1.663,2.88-1.351,7.993-5.547,10.416
			s-12.245-0.21-12.245-0.21S97.21,37.362,101.406,34.939z"/>
		<path fill="#72512F" d="M101.948,39.024c3.115-3.713,8.764-5.717,11.311-3.58c2.548,2.138,1.465,7.973-1.65,11.686
			c-3.113,3.712-11.578,3.99-11.578,3.99S98.835,42.736,101.948,39.024z"/>
		<path fill="#72512F" d="M103.854,42.676c1.658-4.554,6.28-8.369,9.404-7.232c3.125,1.138,4.104,6.991,2.446,11.545
			s-9.516,7.71-9.516,7.71S102.198,47.229,103.854,42.676z"/>
		<path fill="#72512F" d="M106.896,45.457c0-4.846,3.039-10.013,6.363-10.013c3.326,0,6.247,5.167,6.247,10.012
			c0.001,4.845-6.305,10.5-6.305,10.5S106.896,50.302,106.896,45.457z"/>
		<path fill="#72512F" d="M110.704,47.029c-1.657-4.554-0.569-10.448,2.555-11.585c3.125-1.137,7.637,2.719,9.295,7.272
			c1.658,4.553-2.334,12.022-2.334,12.022S112.361,51.583,110.704,47.029z"/>
		<path fill="#72512F" d="M114.82,47.205c-3.114-3.712-4.108-9.623-1.562-11.761c2.548-2.137,8.106-0.058,11.222,3.655
			c3.114,3.711,1.919,12.096,1.919,12.096S117.935,50.916,114.82,47.205z"/>
		<path fill="#72512F" d="M118.749,45.961c-4.197-2.423-7.152-7.638-5.49-10.518c1.663-2.879,7.598-2.826,11.795-0.403
			c4.196,2.422,5.939,10.71,5.939,10.71S122.944,48.384,118.749,45.961z"/>
		<path fill="#72512F" d="M122.015,43.45c-4.772-0.842-9.332-4.731-8.756-8.006c0.578-3.274,6.174-5.254,10.945-4.413
			s9.245,8.033,9.245,8.033S126.786,44.291,122.015,43.45z"/>
		<path fill="#72512F" d="M124.225,39.972c-4.772,0.842-10.388-1.253-10.966-4.528c-0.576-3.274,4.004-7.048,8.775-7.89
			c4.771-0.842,11.436,4.386,11.436,4.386S128.996,39.13,124.225,39.972z"/>
		<path fill="#72512F" d="M125.112,35.949c-4.197,2.423-10.19,2.375-11.854-0.505c-1.662-2.879,1.352-7.992,5.548-10.415
			c4.196-2.423,12.245,0.21,12.245,0.21S129.308,33.526,125.112,35.949z"/>
		<path fill="#72512F" d="M124.57,31.865c-3.115,3.712-8.764,5.717-11.312,3.579c-2.546-2.137-1.463-7.973,1.651-11.685
			c3.113-3.712,11.579-3.991,11.579-3.991S127.685,28.153,124.57,31.865z"/>
		<path fill="#72512F" d="M122.663,28.212c-1.656,4.554-6.279,8.37-9.404,7.232c-3.123-1.137-4.102-6.991-2.445-11.544
			s9.516-7.71,9.516-7.71S124.32,23.659,122.663,28.212z"/>
		<circle fill="#492300" cx="113.259" cy="35.444" r="14.314"/>
		<path fill="#96CF89" d="M120.626,79.208c-3.943,3.385-5.879,8.145-5.562,12.552c4.31,0.982,9.307-0.211,13.251-3.596
			c3.942-3.385,5.879-8.144,5.561-12.553C129.567,74.631,124.569,75.823,120.626,79.208z"/>
		<path fill="#96CF89" d="M95.534,104.095c-5.04,1.271-8.896,4.666-10.578,8.754c3.419,2.801,8.424,3.963,13.463,2.691
			c5.039-1.27,8.896-4.666,10.578-8.754C105.577,103.985,100.573,102.823,95.534,104.095z"/>
	</g>
	<g>
		<path fill="#F7931E" d="M50.077,67.734c-3.489,9.587-9.552,10.81-15.086,8.795c-5.535-2.015-9.393-6.849-5.904-16.436
			c3.49-9.586,18.056-16.951,18.056-16.951S53.566,58.148,50.077,67.734z"/>
		<rect x="30.801" y="99.571" fill="#54AD41" width="5.908" height="75.469"/>
		<path fill="#F7931E" d="M40.894,60.094c3.49,9.587-0.369,14.421-5.903,16.436c-5.535,2.015-11.598,0.792-15.087-8.795
			c-3.489-9.586,2.935-24.591,2.935-24.591S37.404,50.508,40.894,60.094z"/>
		<path fill="#F9A94B" d="M46.159,63.105c0,10.202-5.279,13.425-11.168,13.425c-5.89,0-11.169-3.223-11.169-13.425
			C23.821,52.903,34.99,41,34.99,41S46.159,52.903,46.159,63.105z"/>
		<path fill="#F7931E" d="M28.948,60.145c8.835,5.101,8.986,11.284,6.042,16.385c-2.946,5.101-8.376,8.061-17.211,2.96
			C8.944,74.389,4.22,58.765,4.22,58.765S20.113,55.044,28.948,60.145z"/>
		<path fill="#F9A94B" d="M34.917,59.067c6.558,7.815,4.585,13.677,0.074,17.463c-4.513,3.786-10.627,4.71-17.186-3.105
			c-6.557-7.815-5.653-24.113-5.653-24.113S28.359,51.251,34.917,59.067z"/>
		<path fill="#F7931E" d="M19.83,67.862C29.876,66.09,33.967,70.73,34.99,76.53c1.022,5.801-1.235,11.559-11.282,13.331
			C13.662,91.632,0,82.7,0,82.7S9.783,69.633,19.83,67.862z"/>
		<path fill="#F9A94B" d="M23.708,63.2c10.047,1.771,12.304,7.53,11.282,13.33c-1.023,5.801-5.114,10.439-15.161,8.668
			S0,70.36,0,70.36S13.662,61.428,23.708,63.2z"/>
		<path fill="#F7931E" d="M17.805,79.635c6.558-7.815,12.673-6.89,17.186-3.105c4.511,3.787,6.483,9.647-0.074,17.463
			c-6.557,7.814-22.764,9.754-22.764,9.754S11.247,87.45,17.805,79.635z"/>
		<path fill="#F9A94B" d="M17.779,73.57c8.835-5.101,14.265-2.14,17.211,2.96c2.944,5.102,2.793,11.284-6.042,16.385
			C20.113,98.016,4.22,94.294,4.22,94.294S8.944,78.67,17.779,73.57z"/>
		<path fill="#F7931E" d="M23.821,89.954c0-10.201,5.279-13.423,11.169-13.424c5.89,0.001,11.167,3.223,11.168,13.425
			c0,10.201-11.169,22.104-11.169,22.104S23.821,100.156,23.821,89.954z"/>
		<path fill="#F9A94B" d="M19.903,85.325c3.49-9.586,9.552-10.809,15.087-8.795c5.534,2.015,9.392,6.849,5.903,16.436
			c-3.489,9.586-18.056,16.951-18.056,16.951S16.414,94.911,19.903,85.325z"/>
		<path fill="#F7931E" d="M35.064,93.993c-6.558-7.816-4.585-13.677-0.074-17.463c4.512-3.786,10.627-4.71,17.185,3.105
			c6.557,7.814,5.652,24.112,5.652,24.112S41.621,101.808,35.064,93.993z"/>
		<path fill="#F9A94B" d="M29.086,92.965c-3.489-9.586,0.369-14.42,5.904-16.435c5.535-2.014,11.597-0.791,15.086,8.796
			c3.489,9.585-2.935,24.591-2.935,24.591S32.575,102.552,29.086,92.965z"/>
		<path fill="#F7931E" d="M46.271,89.86C36.225,88.088,33.968,82.33,34.99,76.53c1.023-5.8,5.113-10.438,15.16-8.668
			C60.197,69.634,69.979,82.7,69.979,82.7S56.318,91.632,46.271,89.86z"/>
		<path fill="#F9A94B" d="M41.032,92.915c-8.835-5.101-8.986-11.284-6.042-16.385c2.945-5.101,8.375-8.061,17.211-2.96
			c8.834,5.101,13.558,20.724,13.558,20.724S49.867,98.017,41.032,92.915z"/>
		<path fill="#F7931E" d="M52.201,79.49c-8.835,5.101-14.265,2.141-17.21-2.96c-2.945-5.102-2.793-11.284,6.042-16.385
			c8.834-5.101,24.728-1.38,24.728-1.38S61.036,74.389,52.201,79.49z"/>
		<path fill="#F9A94B" d="M50.15,85.198c-10.047,1.771-14.136-2.868-15.16-8.668c-1.022-5.8,1.234-11.558,11.281-13.33
			C56.318,61.428,69.98,70.36,69.98,70.36S60.197,83.427,50.15,85.198z"/>
		<path fill="#F9A94B" d="M52.175,73.425c-6.558,7.815-12.673,6.891-17.185,3.105c-4.512-3.787-6.484-9.647,0.073-17.463
			c6.558-7.815,22.765-9.754,22.765-9.754S58.732,65.61,52.175,73.425z"/>
		<path fill="#72512F" d="M41.623,66.432c0,4.846-3.039,10.012-6.364,10.012c-3.325,0-6.247-5.167-6.247-10.012
			c0-4.845,6.305-10.499,6.305-10.499S41.623,61.586,41.623,66.432z"/>
		<path fill="#72512F" d="M37.814,64.859c1.657,4.553,0.569,10.448-2.555,11.584c-3.125,1.138-7.637-2.718-9.294-7.271
			c-1.657-4.554,2.334-12.022,2.334-12.022S36.157,60.306,37.814,64.859z"/>
		<path fill="#72512F" d="M33.698,64.684c3.114,3.712,4.108,9.623,1.561,11.76c-2.547,2.138-8.106,0.058-11.221-3.654
			c-3.114-3.712-1.918-12.096-1.918-12.096S30.583,60.972,33.698,64.684z"/>
		<path fill="#72512F" d="M29.77,65.927c4.197,2.423,7.152,7.638,5.489,10.517c-1.662,2.88-7.598,2.827-11.794,0.404
			c-4.197-2.422-5.94-10.71-5.94-10.71S25.574,63.504,29.77,65.927z"/>
		<path fill="#72512F" d="M26.504,68.439c4.772,0.841,9.333,4.731,8.755,8.005c-0.577,3.275-6.172,5.255-10.945,4.413
			c-4.772-0.841-9.245-8.032-9.245-8.032S21.732,67.597,26.504,68.439z"/>
		<path fill="#72512F" d="M24.294,71.916c4.772-0.841,10.388,1.254,10.965,4.528c0.578,3.275-4.003,7.049-8.775,7.891
			c-4.772,0.842-11.435-4.386-11.435-4.386S19.522,72.757,24.294,71.916z"/>
		<path fill="#72512F" d="M23.406,75.939c4.197-2.423,10.19-2.375,11.853,0.504c1.663,2.88-1.351,7.993-5.547,10.416
			c-4.196,2.422-12.245-0.21-12.245-0.21S19.21,78.362,23.406,75.939z"/>
		<path fill="#72512F" d="M23.949,80.024c3.115-3.713,8.764-5.717,11.311-3.58c2.547,2.138,1.464,7.973-1.65,11.686
			C30.495,91.841,22.03,92.12,22.03,92.12S20.834,83.736,23.949,80.024z"/>
		<path fill="#72512F" d="M25.855,83.676c1.658-4.554,6.28-8.369,9.404-7.232c3.125,1.138,4.103,6.991,2.446,11.545
			c-1.657,4.553-9.516,7.709-9.516,7.709S24.198,88.229,25.855,83.676z"/>
		<path fill="#72512F" d="M28.896,86.457c0-4.846,3.039-10.013,6.363-10.013c3.325,0,6.247,5.167,6.247,10.012
			c0,4.846-6.305,10.5-6.305,10.5S28.896,91.302,28.896,86.457z"/>
		<path fill="#72512F" d="M32.704,88.029c-1.657-4.554-0.569-10.448,2.556-11.585c3.125-1.137,7.636,2.719,9.294,7.272
			c1.658,4.553-2.334,12.023-2.334,12.023S34.361,92.583,32.704,88.029z"/>
		<path fill="#72512F" d="M36.82,88.205c-3.115-3.712-4.108-9.623-1.561-11.761c2.547-2.137,8.106-0.058,11.221,3.655
			c3.115,3.711,1.919,12.096,1.919,12.096S39.935,91.916,36.82,88.205z"/>
		<path fill="#72512F" d="M40.749,86.961c-4.197-2.423-7.152-7.638-5.49-10.518c1.663-2.879,7.597-2.826,11.794-0.403
			c4.197,2.422,5.94,10.71,5.94,10.71S44.945,89.384,40.749,86.961z"/>
		<path fill="#72512F" d="M44.015,84.45c-4.773-0.842-9.333-4.731-8.756-8.006c0.578-3.274,6.173-5.254,10.944-4.413
			c4.772,0.841,9.246,8.033,9.246,8.033S48.786,85.291,44.015,84.45z"/>
		<path fill="#72512F" d="M46.225,80.972c-4.772,0.842-10.388-1.253-10.965-4.528c-0.577-3.274,4.003-7.048,8.775-7.89
			c4.771-0.842,11.435,4.386,11.435,4.386S50.996,80.13,46.225,80.972z"/>
		<path fill="#72512F" d="M47.112,76.949c-4.197,2.423-10.19,2.375-11.853-0.505c-1.662-2.879,1.351-7.992,5.547-10.415
			c4.196-2.423,12.246,0.21,12.246,0.21S51.308,74.526,47.112,76.949z"/>
		<path fill="#72512F" d="M46.57,72.865c-3.115,3.712-8.764,5.717-11.311,3.579c-2.546-2.137-1.464-7.973,1.651-11.685
			c3.113-3.712,11.579-3.991,11.579-3.991S49.684,69.153,46.57,72.865z"/>
		<path fill="#72512F" d="M44.664,69.212c-1.657,4.554-6.28,8.37-9.404,7.232c-3.124-1.137-4.103-6.991-2.445-11.544
			c1.656-4.553,9.516-7.71,9.516-7.71S46.32,64.659,44.664,69.212z"/>
		<circle fill="#492300" cx="35.259" cy="76.444" r="14.314"/>
		<path fill="#96CF89" d="M42.626,120.208c-3.943,3.385-5.879,8.145-5.562,12.553c4.31,0.982,9.307-0.211,13.25-3.596
			c3.943-3.385,5.879-8.145,5.562-12.553C51.567,115.631,46.569,116.823,42.626,120.208z"/>
		<path fill="#96CF89" d="M17.534,145.095c-5.04,1.271-8.896,4.666-10.578,8.754c3.419,2.801,8.424,3.963,13.463,2.691
			c5.039-1.27,8.896-4.666,10.578-8.754C27.578,144.985,22.573,143.823,17.534,145.095z"/>
	</g>
	<g>
		<path fill="#F7931E" d="M128.077,67.734c-3.49,9.587-9.553,10.81-15.087,8.795c-5.535-2.015-9.393-6.849-5.904-16.436
			c3.489-9.586,18.056-16.951,18.056-16.951S131.566,58.148,128.077,67.734z"/>
		<rect x="108.801" y="99.571" fill="#54AD41" width="5.907" height="75.469"/>
		<path fill="#F7931E" d="M118.894,60.094c3.49,9.587-0.369,14.421-5.903,16.436c-5.535,2.015-11.598,0.792-15.087-8.795
			c-3.489-9.586,2.935-24.591,2.935-24.591S115.404,50.508,118.894,60.094z"/>
		<path fill="#F9A94B" d="M124.159,63.105c0,10.202-5.279,13.425-11.169,13.425s-11.169-3.223-11.169-13.425
			C101.821,52.903,112.99,41,112.99,41S124.159,52.903,124.159,63.105z"/>
		<path fill="#F7931E" d="M106.948,60.145c8.835,5.101,8.986,11.284,6.042,16.385c-2.946,5.101-8.376,8.061-17.211,2.96
			c-8.835-5.101-13.56-20.725-13.56-20.725S98.113,55.044,106.948,60.145z"/>
		<path fill="#F9A94B" d="M112.917,59.067c6.558,7.815,4.584,13.677,0.073,17.463c-4.513,3.786-10.628,4.71-17.186-3.105
			c-6.558-7.815-5.653-24.113-5.653-24.113S106.358,51.251,112.917,59.067z"/>
		<path fill="#F7931E" d="M97.829,67.862c10.047-1.771,14.138,2.868,15.161,8.668c1.022,5.801-1.235,11.559-11.282,13.331
			C91.661,91.632,78,82.7,78,82.7S87.782,69.633,97.829,67.862z"/>
		<path fill="#F9A94B" d="M101.708,63.2c10.047,1.771,12.305,7.53,11.282,13.33c-1.023,5.801-5.114,10.439-15.161,8.668
			S78,70.36,78,70.36S91.661,61.428,101.708,63.2z"/>
		<path fill="#F7931E" d="M95.805,79.635c6.558-7.815,12.673-6.89,17.186-3.105c4.511,3.787,6.483,9.647-0.074,17.463
			c-6.558,7.814-22.765,9.754-22.765,9.754S89.247,87.45,95.805,79.635z"/>
		<path fill="#F9A94B" d="M95.779,73.57c8.835-5.101,14.265-2.14,17.211,2.96c2.944,5.102,2.793,11.284-6.042,16.385
			c-8.835,5.101-24.729,1.379-24.729,1.379S86.944,78.67,95.779,73.57z"/>
		<path fill="#F7931E" d="M101.821,89.954c0-10.201,5.279-13.423,11.169-13.424c5.89,0.001,11.167,3.223,11.169,13.425
			c0,10.201-11.17,22.104-11.17,22.104S101.821,100.156,101.821,89.954z"/>
		<path fill="#F9A94B" d="M97.903,85.325c3.489-9.586,9.552-10.809,15.087-8.795c5.534,2.015,9.392,6.849,5.903,16.436
			c-3.489,9.586-18.056,16.951-18.056,16.951S94.414,94.911,97.903,85.325z"/>
		<path fill="#F7931E" d="M113.063,93.993c-6.558-7.816-4.585-13.677-0.073-17.463c4.513-3.786,10.627-4.71,17.185,3.105
			c6.558,7.814,5.652,24.112,5.652,24.112S119.62,101.808,113.063,93.993z"/>
		<path fill="#F9A94B" d="M107.087,92.965c-3.49-9.586,0.369-14.42,5.903-16.435c5.534-2.014,11.597-0.791,15.087,8.796
			c3.488,9.585-2.936,24.591-2.936,24.591S110.575,102.552,107.087,92.965z"/>
		<path fill="#F7931E" d="M124.271,89.86c-10.047-1.772-12.304-7.531-11.281-13.331c1.023-5.8,5.113-10.438,15.16-8.668
			c10.046,1.772,19.829,14.838,19.829,14.838S134.317,91.632,124.271,89.86z"/>
		<path fill="#F9A94B" d="M119.032,92.915c-8.836-5.101-8.986-11.284-6.042-16.385c2.945-5.101,8.375-8.061,17.211-2.96
			c8.835,5.101,13.558,20.724,13.558,20.724S127.866,98.017,119.032,92.915z"/>
		<path fill="#F7931E" d="M130.2,79.49c-8.835,5.101-14.265,2.141-17.21-2.96c-2.944-5.102-2.793-11.284,6.042-16.385
			c8.834-5.101,24.728-1.38,24.728-1.38S139.036,74.389,130.2,79.49z"/>
		<path fill="#F9A94B" d="M128.149,85.198c-10.047,1.771-14.136-2.868-15.159-8.668c-1.022-5.8,1.234-11.558,11.281-13.33
			c10.047-1.771,23.708,7.161,23.708,7.161S138.196,83.427,128.149,85.198z"/>
		<path fill="#F9A94B" d="M130.175,73.425c-6.558,7.815-12.673,6.891-17.185,3.105c-4.513-3.787-6.483-9.647,0.073-17.463
			c6.558-7.815,22.765-9.754,22.765-9.754S136.732,65.61,130.175,73.425z"/>
		<path fill="#72512F" d="M119.623,66.432c0,4.846-3.039,10.012-6.364,10.012c-3.324,0-6.246-5.167-6.246-10.012
			c0-4.845,6.305-10.499,6.305-10.499S119.623,61.586,119.623,66.432z"/>
		<path fill="#72512F" d="M115.814,64.859c1.657,4.553,0.569,10.448-2.556,11.584c-3.124,1.138-7.637-2.718-9.294-7.271
			c-1.657-4.554,2.334-12.022,2.334-12.022S114.157,60.306,115.814,64.859z"/>
		<path fill="#72512F" d="M111.698,64.684c3.114,3.712,4.107,9.623,1.561,11.76c-2.547,2.138-8.105,0.058-11.221-3.654
			c-3.114-3.712-1.918-12.096-1.918-12.096S108.583,60.972,111.698,64.684z"/>
		<path fill="#72512F" d="M107.771,65.927c4.196,2.423,7.151,7.638,5.488,10.517c-1.662,2.88-7.598,2.827-11.793,0.404
			c-4.197-2.422-5.941-10.71-5.941-10.71S103.573,63.504,107.771,65.927z"/>
		<path fill="#72512F" d="M104.504,68.439c4.772,0.841,9.333,4.731,8.755,8.005c-0.576,3.275-6.172,5.255-10.944,4.413
			c-4.772-0.841-9.245-8.032-9.245-8.032S99.732,67.597,104.504,68.439z"/>
		<path fill="#72512F" d="M102.294,71.916c4.772-0.841,10.388,1.254,10.965,4.528c0.578,3.275-4.002,7.049-8.775,7.891
			c-4.771,0.842-11.434-4.386-11.434-4.386S97.522,72.757,102.294,71.916z"/>
		<path fill="#72512F" d="M101.406,75.939c4.197-2.423,10.19-2.375,11.853,0.504c1.663,2.88-1.351,7.993-5.547,10.416
			c-4.196,2.422-12.245-0.21-12.245-0.21S97.21,78.362,101.406,75.939z"/>
		<path fill="#72512F" d="M101.948,80.024c3.115-3.713,8.764-5.717,11.311-3.58c2.548,2.138,1.465,7.973-1.65,11.686
			c-3.113,3.711-11.578,3.991-11.578,3.991S98.835,83.736,101.948,80.024z"/>
		<path fill="#72512F" d="M103.854,83.676c1.658-4.554,6.28-8.369,9.404-7.232c3.125,1.138,4.104,6.991,2.446,11.545
			c-1.657,4.553-9.516,7.709-9.516,7.709S102.198,88.229,103.854,83.676z"/>
		<path fill="#72512F" d="M106.896,86.457c0-4.846,3.039-10.013,6.363-10.013c3.326,0,6.247,5.167,6.247,10.012
			c0.001,4.846-6.305,10.5-6.305,10.5S106.896,91.302,106.896,86.457z"/>
		<path fill="#72512F" d="M110.704,88.029c-1.657-4.554-0.569-10.448,2.555-11.585c3.125-1.137,7.637,2.719,9.295,7.272
			c1.658,4.553-2.334,12.023-2.334,12.023S112.361,92.583,110.704,88.029z"/>
		<path fill="#72512F" d="M114.82,88.205c-3.114-3.712-4.108-9.623-1.562-11.761c2.548-2.137,8.106-0.058,11.222,3.655
			c3.114,3.711,1.919,12.096,1.919,12.096S117.935,91.916,114.82,88.205z"/>
		<path fill="#72512F" d="M118.749,86.961c-4.197-2.423-7.152-7.638-5.49-10.518c1.663-2.879,7.598-2.826,11.795-0.403
			c4.196,2.422,5.939,10.71,5.939,10.71S122.944,89.384,118.749,86.961z"/>
		<path fill="#72512F" d="M122.015,84.45c-4.772-0.842-9.332-4.731-8.756-8.006c0.578-3.274,6.174-5.254,10.945-4.413
			s9.245,8.033,9.245,8.033S126.786,85.291,122.015,84.45z"/>
		<path fill="#72512F" d="M124.225,80.972c-4.772,0.842-10.388-1.253-10.966-4.528c-0.576-3.274,4.004-7.048,8.775-7.89
			c4.771-0.842,11.436,4.386,11.436,4.386S128.996,80.13,124.225,80.972z"/>
		<path fill="#72512F" d="M125.112,76.949c-4.197,2.423-10.19,2.375-11.854-0.505c-1.662-2.879,1.352-7.992,5.548-10.415
			c4.196-2.423,12.245,0.21,12.245,0.21S129.308,74.526,125.112,76.949z"/>
		<path fill="#72512F" d="M124.57,72.865c-3.115,3.712-8.764,5.717-11.312,3.579c-2.546-2.137-1.463-7.973,1.651-11.685
			c3.113-3.712,11.579-3.991,11.579-3.991S127.685,69.153,124.57,72.865z"/>
		<path fill="#72512F" d="M122.663,69.212c-1.656,4.554-6.279,8.37-9.404,7.232c-3.123-1.137-4.102-6.991-2.445-11.544
			s9.516-7.71,9.516-7.71S124.32,64.659,122.663,69.212z"/>
		<circle fill="#492300" cx="113.259" cy="76.444" r="14.314"/>
		<path fill="#96CF89" d="M120.626,120.208c-3.943,3.385-5.879,8.145-5.562,12.553c4.31,0.982,9.307-0.211,13.251-3.596
			c3.942-3.385,5.879-8.145,5.561-12.553C129.567,115.631,124.569,116.823,120.626,120.208z"/>
		<path fill="#96CF89" d="M95.534,145.095c-5.04,1.271-8.896,4.666-10.578,8.754c3.419,2.801,8.424,3.963,13.463,2.691
			c5.039-1.27,8.896-4.666,10.578-8.754C105.577,144.985,100.573,143.823,95.534,145.095z"/>
	</g>
</g>
</svg>
