<?xml version="1.0" encoding="utf-8"?>
<!-- Generator: Adobe Illustrator 16.0.0, SVG Export Plug-In . SVG Version: 6.00 Build 0)  -->
<!DOCTYPE svg PUBLIC "-//W3C//DTD SVG 1.1//EN" "http://www.w3.org/Graphics/SVG/1.1/DTD/svg11.dtd">
<svg version="1.1" id="Livello_1" xmlns="http://www.w3.org/2000/svg" xmlns:xlink="http://www.w3.org/1999/xlink" x="0px" y="0px"
	 width="70.232px" height="87.93px" viewBox="0 0 70.232 87.93" enable-background="new 0 0 70.232 87.93" xml:space="preserve">
<g>
	<path fill="#A78C6C" d="M32.188,34.223L18.667,6.364c-1.04-2.143-0.113-4.774,2.071-5.879c2.183-1.104,4.796-0.262,5.837,1.88
		l13.52,27.859"/>
	<path fill="#573C24" d="M20.738,0.486c-1.168,0.591-1.972,1.62-2.312,2.776c1.854-0.332,3.746,0.549,4.595,2.296l12.975,26.739
		l4.1-2.072L26.575,2.366C25.534,0.223,22.921-0.618,20.738,0.486L20.738,0.486z"/>
	<path fill="#A78C6C" d="M24.28,38.221L8.878,6.483c-1.04-2.143-0.113-4.774,2.071-5.878c2.183-1.104,4.796-0.262,5.836,1.88
		l15.403,31.738"/>
	<path fill="#573C24" d="M10.949,0.605C9.781,1.196,8.977,2.226,8.636,3.382c1.854-0.332,3.747,0.549,4.594,2.295l14.859,30.618
		l4.098-2.072L16.785,2.485C15.745,0.343,13.132-0.499,10.949,0.605L10.949,0.605z"/>
	<path fill="#A78C6C" d="M24.28,38.221L11.702,12.302c-1.04-2.142-3.653-2.984-5.836-1.88c-2.183,1.104-3.11,3.736-2.071,5.878
		l14.652,30.172c0.783,1.612-1.052,3.319-2.607,2.423l-9.186-5.292c-2.067-1.186-4.76-0.447-6.016,1.652
		c-1.256,2.098-0.598,4.76,1.468,5.945l26.351,14.996l4.415,20.116c0.294,1.335,1.768,2.01,3.014,1.38l33.126-16.752
		c1.218-0.615,1.604-2.17,0.799-3.223L57.217,51.211c-0.407-4.803-1.685-9.466-3.771-13.765L39.188,8.065
		c-1.041-2.142-3.653-2.984-5.836-1.88c-2.185,1.104-3.111,3.736-2.072,5.878l8.814,18.162"/>
	<g>
		<path fill="#573C24" d="M8.147,15.495l12.161,24.77l3.972-2.043L11.702,12.302c-1.04-2.142-3.653-2.984-5.836-1.88
			c-1.168,0.59-1.972,1.62-2.312,2.777C5.407,12.867,7.299,13.749,8.147,15.495z"/>
		<path fill="#573C24" d="M3.099,46.825l9.186,5.292c1.554,0.896,3.39-0.811,2.606-2.424l-0.887-1.855l-7.351-4.235
			c-2.067-1.187-4.76-0.447-6.016,1.651C0.436,45.59,0.289,45.942,0.184,46.3C1.16,46.125,2.19,46.303,3.099,46.825z"/>
		<path fill="#573C24" d="M33.353,6.185c-1.169,0.59-1.973,1.62-2.312,2.776c1.854-0.332,3.746,0.55,4.593,2.296l14.259,29.381
			c2.086,4.298,3.363,8.961,3.771,13.765L66.255,70.91c0.277,0.363,0.41,0.787,0.419,1.211l2.337-1.182
			c1.217-0.615,1.603-2.17,0.799-3.223L57.217,51.211c-0.407-4.804-1.685-9.467-3.771-13.765L39.187,8.065
			C38.147,5.923,35.535,5.081,33.353,6.185z"/>
	</g>
	<path fill="#8D7154" d="M32.871,86.312c0.294,1.335,1.768,2.01,3.014,1.38l33.126-16.752c1.218-0.615,1.604-2.17,0.799-3.223
		l-3.903-5.116L31.497,80.053L32.871,86.312z"/>
</g>
</svg>
