<?xml version="1.0" encoding="utf-8"?>
<!-- Generator: Adobe Illustrator 16.0.0, SVG Export Plug-In . SVG Version: 6.00 Build 0)  -->
<!DOCTYPE svg PUBLIC "-//W3C//DTD SVG 1.1//EN" "http://www.w3.org/Graphics/SVG/1.1/DTD/svg11.dtd">
<svg version="1.1" id="Livello_1" xmlns="http://www.w3.org/2000/svg" xmlns:xlink="http://www.w3.org/1999/xlink" x="0px" y="0px"
	 width="104.449px" height="124.755px" viewBox="0 0 104.449 124.755" enable-background="new 0 0 104.449 124.755"
	 xml:space="preserve">
<g>
	<polygon fill="#54AD41" points="23.107,117.597 17.199,117.597 17.199,71.87 20.153,71.87 23.107,71.87 	"/>
	<path fill="#96CF89" d="M26.583,72.527c-2.572,2.208-3.835,5.312-3.628,8.189c2.812,0.64,6.071-0.139,8.645-2.347
		c2.572-2.208,3.836-5.313,3.628-8.19C32.416,69.54,29.155,70.318,26.583,72.527z"/>
	<path fill="#96CF89" d="M28.024,92.472c-3.104,2.664-4.629,6.412-4.379,9.883c3.394,0.773,7.328-0.166,10.433-2.831
		c3.104-2.665,4.629-6.413,4.379-9.884C35.064,88.867,31.129,89.806,28.024,92.472z"/>
	<path fill="#96CF89" d="M10.139,92.964c-2.728,0.688-4.814,2.527-5.725,4.738c1.85,1.517,4.56,2.146,7.288,1.457
		c2.727-0.688,4.814-2.525,5.725-4.738C15.575,92.907,12.867,92.277,10.139,92.964z"/>
	<path fill="#96CF89" d="M9.791,66.373c3.665,0.925,6.468,3.395,7.692,6.366c-2.486,2.036-6.126,2.882-9.79,1.958
		C4.028,73.773,1.224,71.302,0,68.332C2.486,66.294,6.126,65.449,9.791,66.373z"/>
	<path fill="#443315" d="M3.857,123.539c2.574-2.639,4.883-3.56,6.509-5.953c1.936-2.85,6.487-6.983,9.463-7.148
		c5.476-0.305,3.686,2.807,10.379,5.058s3.235,6.827,7.19,8.044s0.971,1.217,0.971,1.217H3.857V123.539z"/>
	<polygon fill="#54AD41" points="23.107,51.597 17.199,51.597 17.199,5.87 20.153,5.87 23.107,5.87 	"/>
	<path fill="#96CF89" d="M26.583,6.526c-2.572,2.208-3.835,5.313-3.628,8.189c2.812,0.64,6.071-0.138,8.645-2.346
		c2.572-2.208,3.836-5.313,3.628-8.19C32.416,3.54,29.155,4.318,26.583,6.526z"/>
	<path fill="#96CF89" d="M28.024,26.472c-3.104,2.665-4.629,6.413-4.379,9.884c3.394,0.773,7.328-0.166,10.433-2.832
		c3.104-2.665,4.629-6.413,4.379-9.884C35.064,22.867,31.129,23.806,28.024,26.472z"/>
	<path fill="#96CF89" d="M10.139,26.965c-2.728,0.688-4.814,2.526-5.725,4.738c1.85,1.516,4.56,2.145,7.288,1.457
		c2.727-0.688,4.814-2.525,5.725-4.738C15.575,26.907,12.867,26.277,10.139,26.965z"/>
	<path fill="#96CF89" d="M9.791,0.373c3.665,0.924,6.468,3.394,7.692,6.366c-2.486,2.037-6.126,2.882-9.79,1.958
		C4.028,7.772,1.224,5.303,0,2.331C2.486,0.294,6.126-0.551,9.791,0.373z"/>
	<path fill="#443315" d="M3.857,57.539c2.574-2.639,4.883-3.56,6.509-5.953c1.936-2.85,6.487-6.984,9.463-7.149
		c5.476-0.304,3.686,2.807,10.379,5.058s3.235,6.828,7.19,8.044s0.971,1.217,0.971,1.217H3.857V57.539z"/>
	<polygon fill="#54AD41" points="88.107,117.597 82.2,117.597 82.2,71.87 85.153,71.87 88.107,71.87 	"/>
	<path fill="#96CF89" d="M91.583,72.527c-2.572,2.208-3.835,5.312-3.628,8.189c2.812,0.64,6.071-0.139,8.645-2.347
		c2.572-2.208,3.836-5.313,3.628-8.19C97.417,69.54,94.155,70.318,91.583,72.527z"/>
	<path fill="#96CF89" d="M93.024,92.472c-3.104,2.664-4.629,6.412-4.379,9.883c3.395,0.773,7.328-0.166,10.434-2.831
		c3.104-2.665,4.629-6.413,4.379-9.884C100.065,88.867,96.129,89.806,93.024,92.472z"/>
	<path fill="#96CF89" d="M75.139,92.964c-2.729,0.688-4.814,2.527-5.726,4.738c1.851,1.517,4.56,2.146,7.288,1.457
		c2.727-0.688,4.813-2.525,5.725-4.738C80.575,92.907,77.867,92.277,75.139,92.964z"/>
	<path fill="#96CF89" d="M74.791,66.373c3.665,0.925,6.468,3.395,7.692,6.366c-2.486,2.036-6.127,2.882-9.791,1.958
		S66.223,71.302,65,68.332C67.487,66.294,71.125,65.449,74.791,66.373z"/>
	<path fill="#443315" d="M68.857,123.539c2.574-2.639,4.883-3.56,6.509-5.953c1.936-2.85,6.486-6.983,9.463-7.148
		c5.477-0.305,3.687,2.807,10.379,5.058c6.693,2.251,3.236,6.827,7.191,8.044s0.971,1.217,0.971,1.217H68.857V123.539z"/>
	<polygon fill="#54AD41" points="88.107,51.597 82.2,51.597 82.2,5.87 85.153,5.87 88.107,5.87 	"/>
	<path fill="#96CF89" d="M91.583,6.526c-2.572,2.208-3.835,5.313-3.628,8.189c2.812,0.64,6.071-0.138,8.645-2.346
		c2.572-2.208,3.836-5.313,3.628-8.19C97.417,3.54,94.155,4.318,91.583,6.526z"/>
	<path fill="#96CF89" d="M93.024,26.472c-3.104,2.665-4.629,6.413-4.379,9.884c3.395,0.773,7.328-0.166,10.434-2.832
		c3.104-2.665,4.629-6.413,4.379-9.884C100.065,22.867,96.129,23.806,93.024,26.472z"/>
	<path fill="#96CF89" d="M75.139,26.965c-2.729,0.688-4.814,2.526-5.726,4.738c1.851,1.516,4.56,2.145,7.288,1.457
		c2.727-0.688,4.813-2.525,5.725-4.738C80.575,26.907,77.867,26.277,75.139,26.965z"/>
	<path fill="#96CF89" d="M74.791,0.373c3.665,0.924,6.468,3.394,7.692,6.366c-2.486,2.037-6.127,2.882-9.791,1.958
		C69.028,7.772,66.223,5.303,65,2.331C67.487,0.294,71.125-0.551,74.791,0.373z"/>
	<path fill="#443315" d="M68.857,57.539c2.574-2.639,4.883-3.56,6.509-5.953c1.936-2.85,6.486-6.984,9.463-7.149
		c5.477-0.304,3.687,2.807,10.379,5.058c6.693,2.251,3.236,6.828,7.191,8.044s0.971,1.217,0.971,1.217H68.857V57.539z"/>
</g>
</svg>
