<?xml version="1.0" encoding="utf-8"?>
<!-- Generator: Adobe Illustrator 16.0.0, SVG Export Plug-In . SVG Version: 6.00 Build 0)  -->
<!DOCTYPE svg PUBLIC "-//W3C//DTD SVG 1.1//EN" "http://www.w3.org/Graphics/SVG/1.1/DTD/svg11.dtd">
<svg version="1.1" id="Livello_1" xmlns="http://www.w3.org/2000/svg" xmlns:xlink="http://www.w3.org/1999/xlink" x="0px" y="0px"
	 width="110.532px" height="97.277px" viewBox="0 0 110.532 97.277" enable-background="new 0 0 110.532 97.277"
	 xml:space="preserve">
<g>
	<g>
		<path fill="#FDC673" d="M13.865,2.912c4.407,4.407,2.503,13.456,2.503,13.456s-9.049,1.904-13.456-2.503
			C-1.495,9.458,0.409,0.409,0.409,0.409S9.458-1.495,13.865,2.912z"/>
		<path fill="#FDC673" d="M43.865,2.912c4.407,4.407,2.503,13.456,2.503,13.456s-9.049,1.904-13.456-2.503
			c-4.407-4.407-2.503-13.456-2.503-13.456S39.458-1.495,43.865,2.912z"/>
		<path fill="#FDC673" d="M73.865,2.912c4.407,4.407,2.503,13.456,2.503,13.456s-9.049,1.904-13.456-2.503
			c-4.406-4.407-2.503-13.456-2.503-13.456S69.458-1.495,73.865,2.912z"/>
		<path fill="#FDC673" d="M103.865,2.912c4.407,4.407,2.503,13.456,2.503,13.456s-9.049,1.904-13.456-2.503
			c-4.406-4.407-2.503-13.456-2.503-13.456S99.458-1.495,103.865,2.912z"/>
	</g>
	<g>
		<path fill="#FDC673" d="M14.846,43.164c4.407,4.407,2.503,13.456,2.503,13.456S8.3,58.523,3.894,54.117
			C-0.514,49.709,1.39,40.661,1.39,40.661S10.439,38.756,14.846,43.164z"/>
		<path fill="#FDC673" d="M44.846,43.164c4.407,4.407,2.503,13.456,2.503,13.456s-9.049,1.904-13.456-2.502
			c-4.407-4.408-2.503-13.457-2.503-13.457S40.439,38.756,44.846,43.164z"/>
		<path fill="#FDC673" d="M74.846,43.164c4.408,4.407,2.504,13.456,2.504,13.456s-9.049,1.904-13.456-2.502
			c-4.407-4.408-2.503-13.457-2.503-13.457S70.439,38.756,74.846,43.164z"/>
		<path fill="#FDC673" d="M104.846,43.164c4.408,4.407,2.504,13.456,2.504,13.456s-9.049,1.904-13.456-2.502
			c-4.407-4.408-2.503-13.457-2.503-13.457S100.439,38.756,104.846,43.164z"/>
	</g>
	<g>
		<path fill="#FDC673" d="M17.62,83.412c4.407,4.408,2.503,13.457,2.503,13.457s-9.049,1.902-13.456-2.504
			C2.26,89.959,4.164,80.91,4.164,80.91S13.213,79.006,17.62,83.412z"/>
		<path fill="#FDC673" d="M47.62,83.412c4.407,4.408,2.503,13.457,2.503,13.457s-9.049,1.902-13.456-2.504
			c-4.407-4.406-2.503-13.455-2.503-13.455S43.213,79.006,47.62,83.412z"/>
		<path fill="#FDC673" d="M77.62,83.412c4.407,4.408,2.503,13.457,2.503,13.457s-9.049,1.902-13.455-2.504
			c-4.408-4.406-2.504-13.455-2.504-13.455S73.213,79.006,77.62,83.412z"/>
		<path fill="#FDC673" d="M107.62,83.412c4.407,4.408,2.503,13.457,2.503,13.457s-9.049,1.902-13.455-2.504
			c-4.408-4.406-2.504-13.455-2.504-13.455S103.213,79.006,107.62,83.412z"/>
	</g>
</g>
</svg>
